<?xml version="1.0" encoding="UTF-8" standalone="no"?>
<svg width="250px" height="250px" viewBox="0 0 250 250" version="1.1" xmlns="http://www.w3.org/2000/svg" xmlns:xlink="http://www.w3.org/1999/xlink">
    <!-- Generator: Sketch 42 (36781) - http://www.bohemiancoding.com/sketch -->
    <title>aboutNatasa</title>
    <desc>Created with Sketch.</desc>
    <defs></defs>
    <g id="Welcome" stroke="none" stroke-width="1" fill="none" fill-rule="evenodd">
        <g id="Desktop-HD-2" transform="translate(-152.000000, -399.000000)" fill="#33CCCC">
            <path d="M206.231366,453.231366 L231.653304,478.653304 C204.443488,496.717567 189.58914,530.162455 196.791897,564.048759 C206.207666,608.346471 249.751046,636.623873 294.048759,627.208103 C315.915453,622.560194 333.878464,609.596379 345.330907,592.330907 L402,649 L152,649 L152,399 L199.158742,446.158742 C194.920716,450.572569 190.871826,455.355011 187.03052,460.518943 C169.248545,484.423554 161.286196,509.829031 161.801055,535.626806 C162.214891,556.362641 168.121778,576.418564 177.602582,593.816976 C183.627327,604.873105 183.841145,613.297018 180.52502,616.997058 C178.477028,619.28215 175.427062,618.794033 173.17889,614.859731 C171.80884,612.462144 168.754567,611.62916 166.356979,612.99921 C163.959392,614.36926 163.126408,617.423533 164.496458,619.82112 C170.002489,629.456673 181.183036,631.246011 187.971867,623.671222 C194.558908,616.321585 194.231808,603.43464 186.383498,589.032049 C177.631553,572.97118 172.178858,554.457401 171.799064,535.427271 C171.328053,511.826565 178.609237,488.594482 195.054058,466.48743 C198.602176,461.717636 202.333227,457.303594 206.231366,453.231366 Z M241.798716,488.798716 L335.187951,582.187951 C325.802493,597.701088 310.272507,609.446871 291.137995,613.514037 C254.403307,621.322236 218.294162,597.872683 210.485963,561.137995 C204.304169,532.054941 217.714658,503.363976 241.798716,488.798716 Z M251.242082,578.49099 C251.608189,579.045013 252.23961,579.903876 253.127603,580.968184 C254.573746,582.701465 256.254687,584.428772 258.168324,586.048598 C263.795647,590.811927 270.281336,593.730093 277.531612,593.730093 C286.674022,593.730093 295.854888,589.002632 304.793143,579.081062 C306.641448,577.029421 306.476612,573.86789 304.424971,572.019585 C302.37333,570.17128 299.2118,570.336116 297.363495,572.387757 C290.203667,580.335252 283.610787,583.730093 277.531612,583.730093 C272.942877,583.730093 268.597367,581.774877 264.629128,578.415904 C263.184318,577.192924 261.901157,575.874368 260.806019,574.561786 C260.428662,574.109504 260.104939,573.694978 259.837465,573.331157 C259.692176,573.133535 259.607258,573.011442 259.585046,572.977829 C258.062629,570.673983 254.96083,570.04051 252.656984,571.562927 C250.353138,573.085344 249.719664,576.187144 251.242082,578.49099 Z M240,551 C246.627417,551 252,543.164983 252,533.5 C252,523.835017 246.627417,516 240,516 C233.372583,516 228,523.835017 228,533.5 C228,543.164983 233.372583,551 240,551 Z" id="Combined-Shape"></path>
        </g>
    </g>
</svg>