<?xml version="1.0" encoding="UTF-8" standalone="no"?>
<svg width="250px" height="250px" viewBox="0 0 250 250" version="1.1" xmlns="http://www.w3.org/2000/svg" xmlns:xlink="http://www.w3.org/1999/xlink">
    <!-- Generator: Sketch 42 (36781) - http://www.bohemiancoding.com/sketch -->
    <title>awards</title>
    <desc>Created with Sketch.</desc>
    <defs></defs>
    <g id="Welcome" stroke="none" stroke-width="1" fill="none" fill-rule="evenodd">
        <g id="Desktop-HD-2" transform="translate(-1036.000000, -399.000000)" fill="#33CCCC">
            <path d="M1233.80592,544.611842 C1215.76018,560.263573 1196.46678,563.860528 1185.41742,558.139195 C1165.90594,548.020879 1161.22471,514.262496 1161.22471,514.262496 C1161.22471,514.262496 1156.54348,548.020879 1137.032,558.139195 C1125.91796,563.887325 1106.47481,560.20398 1088.3404,544.319199 L1161,399 L1233.80592,544.611842 Z M1235.21476,547.429512 L1286,649 L1036,649 L1087.06266,546.874681 L1100.00982,587.321339 L1100.00982,609.865255 L1222.43959,609.865255 L1222.43959,587.321339 L1235.21476,547.429512 Z M1173.31343,502.127415 C1173.31343,495.420198 1167.90672,490.000767 1161.22471,490.000767 C1154.55033,490.000767 1149.13599,495.420198 1149.13599,502.127415 C1149.13599,508.842298 1154.55033,514.26173 1161.22471,514.26173 C1167.90672,514.26173 1173.31343,508.842298 1173.31343,502.127415 Z M1196.2461,598.873084 L1188.60187,585.519972 L1196.2461,572.166861 L1203.89032,585.519972 L1196.2461,598.873084 Z M1161.22471,597.753937 L1150.61749,579.226686 L1161.22471,560.707101 L1171.83193,579.226686 L1161.22471,597.753937 Z M1126.20332,598.873084 L1118.55909,585.519972 L1126.20332,572.166861 L1133.84754,585.519972 L1126.20332,598.873084 Z" id="Combined-Shape"></path>
        </g>
    </g>
</svg>