<?xml version="1.0" encoding="UTF-8" standalone="no"?>
<svg width="49px" height="33px" viewBox="0 0 49 33" version="1.1" xmlns="http://www.w3.org/2000/svg" xmlns:xlink="http://www.w3.org/1999/xlink">
    <!-- Generator: Sketch 42 (36781) - http://www.bohemiancoding.com/sketch -->
    <title>email</title>
    <desc>Created with Sketch.</desc>
    <defs>
        <polygon id="path-1" points="0.0342592593 32.5501852 44.7453704 32.5501852 44.7453704 16.5064815 0.0342592593 16.5064815 0.0342592593 32.5501852"></polygon>
        <polygon id="path-3" points="-2 2.83648148 -2 28.5198148 12.5922222 28.5198148 12.5922222 2.83648148 -2 2.83648148"></polygon>
    </defs>
    <g id="Welcome" stroke="none" stroke-width="1" fill="none" fill-rule="evenodd">
        <g id="Desktop-HD-3" transform="translate(-693.000000, -829.000000)">
            <g id="email" transform="translate(695.000000, 829.000000)">
                <path d="M32.0666667,14.2477778 L46.4092593,28.1125926 C46.4611111,27.7903704 46.4981481,27.4625926 46.4981481,27.1274074 L46.512963,5.44592593 C46.512963,4.30703704 46.1944444,3.25148148 45.6574074,2.37555556 L32.0666667,14.2477778 Z" id="Fill-1" fill="#FFFFFF"></path>
                <path d="M22.2377778,18.2914815 L42.91,0.228518519 C42.5137037,0.111851852 42.1025926,0.0266666667 41.6655556,0.0266666667 L2.86925926,0.000740740741 C2.22481481,0.000740740741 1.61185185,0.147037037 1.05074074,0.402592593 L22.2377778,18.2914815 Z" id="Fill-3" fill="#FFFFFF"></path>
                <mask id="mask-2" fill="white">
                    <use xlink:href="#path-1"></use>
                </mask>
                <g id="Clip-6"></g>
                <path d="M29.4805556,16.5064815 L22.2731481,22.8027778 L15.2212963,16.8472222 L0.0342592593,31.4972222 C0.830555556,32.1361111 1.79907407,32.5231481 2.85092593,32.5231481 L41.6453704,32.5509259 C42.8342593,32.5509259 43.9027778,32.0546296 44.7453704,31.2657407 L29.4805556,16.5064815 Z" id="Fill-5" fill="#FFFFFF" mask="url(#mask-2)"></path>
                <mask id="mask-4" fill="white">
                    <use xlink:href="#path-3"></use>
                </mask>
                <g id="Clip-9"></g>
                <path d="M-1.37074074,2.83648148 C-1.74851852,3.6087037 -1.98185185,4.47907407 -1.98185185,5.41981481 L-2.00037037,27.0975926 C-2.00037037,27.592037 -1.92074074,28.0624074 -1.80962963,28.5198148 L12.5922222,14.6290741 L-1.37074074,2.83648148 Z" id="Fill-8" fill="#FFFFFF" mask="url(#mask-4)"></path>
            </g>
        </g>
    </g>
</svg>