<?xml version="1.0" encoding="UTF-8" standalone="no"?>
<svg width="50px" height="50px" viewBox="0 0 50 50" version="1.1" xmlns="http://www.w3.org/2000/svg" xmlns:xlink="http://www.w3.org/1999/xlink">
    <!-- Generator: Sketch 42 (36781) - http://www.bohemiancoding.com/sketch -->
    <title>fb</title>
    <desc>Created with Sketch.</desc>
    <defs></defs>
    <g id="Welcome" stroke="none" stroke-width="1" fill="none" fill-rule="evenodd">
        <g id="Desktop-HD-3" transform="translate(-463.000000, -821.000000)" fill="#FFFFFF">
            <path d="M498.234926,870.198068 L510.981038,870.198068 C512.094697,870.198068 513,869.291958 513,868.179106 L513,823.018962 C513,821.90611 512.094697,821 510.981038,821 L465.018962,821 C463.911763,821 463.006461,821.901265 463.001615,823.008463 L463,868.183952 C463.001615,869.294381 463.907725,870.198068 465.018962,870.198068 L490.255181,870.198068 L490.255181,850.791805 L483.667711,850.791805 L483.667711,843.329721 L490.255181,843.329721 L490.255181,836.141408 C490.255181,831.688385 494.283414,828.361136 497.884435,828.361136 L505.549222,828.361136 L505.549222,835.202187 L501.857752,835.202187 C500.260349,835.202187 498.234926,836.495938 498.234926,837.948783 L498.234926,843.329721 L504.878927,843.329721 L504.878927,850.791805 L498.234926,850.791805 L498.234926,870.198068 Z" id="fb"></path>
        </g>
    </g>
</svg>