<?xml version="1.0" encoding="UTF-8" standalone="no"?>
<svg width="106px" height="226px" viewBox="0 0 106 226" version="1.1" xmlns="http://www.w3.org/2000/svg" xmlns:xlink="http://www.w3.org/1999/xlink">
    <!-- Generator: Sketch 42 (36781) - http://www.bohemiancoding.com/sketch -->
    <title>logo02</title>
    <desc>Created with Sketch.</desc>
    <defs></defs>
    <g id="Welcome" stroke="none" stroke-width="1" fill="none" fill-rule="evenodd">
        <g id="Desktop-HD-2" transform="translate(-46.000000, -40.000000)" fill="#33CCCC">
            <g id="Page-1" transform="translate(46.000000, 39.000000)">
                <g id="logo02" transform="translate(0.000000, 0.436128)">
                    <path d="M93.3271172,197.812065 C93.3271172,212.869168 81.2726655,225.965666 66.4032803,225.965666 C51.533895,225.965666 39.4794433,212.869168 39.4794433,197.812065 C39.4794433,182.754963 51.533895,170.548954 66.4032803,170.548954 C81.2726655,170.548954 93.3271172,182.754963 93.3271172,197.812065" id="Fill-6"></path>
                    <polygon id="Fill-9" points="78.1875652 121.497233 16.7835772 216.342936 11.553854 212.758048 72.9587704 117.91139"></polygon>
                    <polygon id="Fill-11" points="20.2923102 49.1746978 42.8544856 10.0008151 9.2840817e-05 10.0008151"></polygon>
                    <polyline id="Fill-13" points="22.4291345 157.14174 22.4291345 165.740885 88.3461145 165.740885 88.3461145 149.482769 28.9279917 119.042751 28.9279917 111.325496 75.3484002 111.279634 75.3484002 118.923318 84.6324819 114.146015 84.6324819 106.502331 22.4291345 106.502331 22.4291345 120.834239 82.7756655 152.306154 82.7756655 160.008122 31.7132162 160.008122 31.7132162 151.408977"></polyline>
                    <polygon id="Fill-1" points="2.80286427 50.2665981 39.2642383 50.2665981 39.2642383 45.6708328 2.80286427 45.6708328"></polygon>
                    <polygon id="Fill-2" points="48.5439565 30.902279 105.840667 25.2010459 45.3892256 0.594114822"></polygon>
                    <polygon id="Fill-3" points="103.912549 69.6544215 92.7131609 86.0778329 53.272525 33.296281"></polygon>
                    <polygon id="Fill-4" points="0 84.5265472 42.8534643 84.5265472 19.9533484 47.567422"></polygon>
                    <polygon id="Fill-5" points="94.7271567 27.8209188 46.0776402 72.11607 60.8328313 86.9687043"></polygon>
                </g>
            </g>
        </g>
    </g>
</svg>