<?xml version="1.0" encoding="UTF-8" standalone="no"?>
<svg width="700px" height="496px" viewBox="0 0 700 496" version="1.1" xmlns="http://www.w3.org/2000/svg" xmlns:xlink="http://www.w3.org/1999/xlink">
    <!-- Generator: Sketch 42 (36781) - http://www.bohemiancoding.com/sketch -->
    <title>logo01</title>
    <desc>Created with Sketch.</desc>
    <defs>
        <polygon id="path-1" points="0 139.618487 691.765542 139.618487 691.765542 0.51617179 0 0.51617179"></polygon>
    </defs>
    <g id="Welcome" stroke="none" stroke-width="1" fill="none" fill-rule="evenodd">
        <g id="Desktop-HD" transform="translate(-46.000000, -270.000000)">
            <g id="bnpic_web2" transform="translate(167.000000, 113.000000)"></g>
            <g id="Page-1" transform="translate(46.000000, 270.000000)">
                <polygon id="Fill-1" fill="#33CCCC" points="0 0.529634848 1.76530097 138.620544 89.9925534 138.620544"></polygon>
                <polygon id="Fill-2" fill="#33CCCC" points="88.7541748 138.620989 97.6496019 138.620989 97.6496019 0.530080303 88.7541748 0.530080303"></polygon>
                <path d="M170.536259,1.52963485 L225.376201,139.620544 L122.753075,139.620544 L170.536259,1.52963485 Z M206.531724,104.939235 C206.531724,86.3905076 191.522219,71.3541894 173.006569,71.3541894 C154.490918,71.3541894 139.47919,86.3905076 139.47919,104.939235 C139.47919,123.487962 154.490918,138.52428 173.006569,138.52428 C191.522219,138.52428 206.531724,123.487962 206.531724,104.939235 Z" id="Combined-Shape" fill="#33CCCC"></path>
                <g id="Group-24">
                    <path d="M405.881347,0.516396119 L461.11806,139.600765 L357.754398,139.600765 L405.881347,0.516396119 Z M442.136444,102.425981 C442.136444,83.7438095 427.018957,68.5993163 408.3701,68.5993163 C389.721244,68.5993163 374.601517,83.7438095 374.601517,102.425981 C374.601517,121.108152 389.721244,137.356347 408.3701,137.356347 C427.018957,137.356347 442.136444,121.108152 442.136444,102.425981 Z" id="Combined-Shape" fill="#33CCCC"></path>
                    <path d="M636.528829,0.516396119 L691.765542,139.600765 L588.40188,139.600765 L636.528829,0.516396119 Z M672.78415,104.669277 C672.78415,85.9871057 657.666663,70.8426126 639.017806,70.8426126 C620.36895,70.8426126 605.249223,85.9871057 605.249223,104.669277 C605.249223,123.351448 620.36895,138.495942 639.017806,138.495942 C657.666663,138.495942 672.78415,123.351448 672.78415,104.669277 Z" id="Combined-Shape" fill="#33CCCC"></path>
                    <mask id="mask-2" fill="white">
                        <use xlink:href="#path-1"></use>
                    </mask>
                    <g id="Clip-21"></g>
                    <polygon id="Fill-20" fill="#33CCCC" mask="url(#mask-2)" points="224.711108 11.3064269 353.985663 11.3064269 353.985663 0.51617179 224.711108 0.51617179"></polygon>
                    <polygon id="Fill-22" fill="#33CCCC" mask="url(#mask-2)" points="288.40721 0.516396119 245.184319 139.600765 333.477519 139.600765"></polygon>
                    <polyline id="Fill-23" fill="#33CCCC" mask="url(#mask-2)" points="472.313644 119.411099 472.313644 139.600765 570.842665 139.600765 570.842665 101.428836 485.749419 29.9596597 485.749419 11.8405557 550.689002 11.7328775 550.689002 29.6792477 564.124777 18.4627663 564.124777 0.516396119 472.313644 0.516396119 472.313644 34.1658402 557.406889 108.057776 557.406889 126.140987 485.749419 126.140987 485.749419 105.951321"></polyline>
                </g>
                <text id="RESUME-Copy" font-family="Helvetica" font-size="48" font-weight="normal" fill="#FF7BAC">
                    <tspan x="1" y="197">RESUME</tspan>
                </text>
            </g>
        </g>
    </g>
</svg>