<?xml version="1.0" encoding="UTF-8" standalone="no"?>
<svg width="250px" height="250px" viewBox="0 0 250 250" version="1.1" xmlns="http://www.w3.org/2000/svg" xmlns:xlink="http://www.w3.org/1999/xlink">
    <!-- Generator: Sketch 42 (36781) - http://www.bohemiancoding.com/sketch -->
    <title>skills</title>
    <desc>Created with Sketch.</desc>
    <defs></defs>
    <g id="Welcome" stroke="none" stroke-width="1" fill="none" fill-rule="evenodd">
        <g id="Desktop-HD-2" transform="translate(-594.000000, -399.000000)" fill="#33CCCC">
            <path d="M658,585 L594,649 L594,399 L844,399 L806.855077,436.144923 L643.997928,436.144923 C635.164346,436.144923 628,443.307069 628,452.142023 L628,540.147824 C628,548.97551 635.162516,556.144923 643.997928,556.144923 L686.855077,556.144923 L679,564 L626,564 C626,564 620.25,578.75 638,585 L658,585 Z M790.857977,452.142023 L697.852176,545.147824 L640,545.147824 L640,452.142023 L790.857977,452.142023 Z M730,449 C727.790861,449 726,447.209139 726,445 C726,442.790861 727.790861,441 730,441 C732.209139,441 734,442.790861 734,445 C734,447.209139 732.209139,449 730,449 Z" id="Combined-Shape"></path>
        </g>
    </g>
</svg>