<?xml version="1.0" encoding="UTF-8" standalone="no"?>
<svg width="72px" height="28px" viewBox="0 0 72 28" version="1.1" xmlns="http://www.w3.org/2000/svg" xmlns:xlink="http://www.w3.org/1999/xlink">
    <!-- Generator: Sketch 42 (36781) - http://www.bohemiancoding.com/sketch -->
    <title>TOP</title>
    <desc>Created with Sketch.</desc>
    <defs></defs>
    <g id="Welcome" stroke="none" stroke-width="1" fill="none" fill-rule="evenodd">
        <g id="Desktop-HD-3" transform="translate(-913.000000, -832.000000)" fill="#FFFFFF">
            <path d="M934.533203,833.177734 L934.533203,836.253906 L925.832031,836.253906 L925.832031,859 L922.28125,859 L922.28125,836.253906 L913.580078,836.253906 L913.580078,833.177734 L934.533203,833.177734 Z M958.369141,836.869141 C960.080087,839.154308 960.935547,842.078107 960.935547,845.640625 C960.935547,849.496113 959.957041,852.701159 958,855.255859 C955.703114,858.255874 952.427756,859.755859 948.173828,859.755859 C944.201152,859.755859 941.078136,858.443373 938.804688,855.818359 C936.777334,853.287097 935.763672,850.08791 935.763672,846.220703 C935.763672,842.728498 936.630851,839.740247 938.365234,837.255859 C940.591808,834.068343 943.884744,832.474609 948.244141,832.474609 C952.802757,832.474609 956.177723,833.939438 958.369141,836.869141 Z M955.28418,853.313477 C956.66114,851.104481 957.349609,848.564467 957.349609,845.693359 C957.349609,842.658188 956.555672,840.214853 954.967773,838.363281 C953.379875,836.511709 951.208998,835.585938 948.455078,835.585938 C945.78319,835.585938 943.603524,836.502921 941.916016,838.336914 C940.228507,840.170908 939.384766,842.874982 939.384766,846.449219 C939.384766,849.308608 940.108391,851.719717 941.555664,853.682617 C943.002937,855.645518 945.349593,856.626953 948.595703,856.626953 C951.67775,856.626953 953.90722,855.522472 955.28418,853.313477 Z M965.435547,833.177734 L977.054688,833.177734 C979.351574,833.177734 981.203118,833.825189 982.609375,835.120117 C984.015632,836.415046 984.71875,838.234363 984.71875,840.578125 C984.71875,842.59376 984.091803,844.348625 982.837891,845.842773 C981.583978,847.336922 979.656263,848.083984 977.054688,848.083984 L968.933594,848.083984 L968.933594,859 L965.435547,859 L965.435547,833.177734 Z M979.076172,836.728516 C978.302731,836.365233 977.242194,836.183594 975.894531,836.183594 L968.933594,836.183594 L968.933594,845.130859 L975.894531,845.130859 C977.464852,845.130859 978.739253,844.796878 979.717773,844.128906 C980.696294,843.460934 981.185547,842.283212 981.185547,840.595703 C981.185547,838.697256 980.482429,837.408207 979.076172,836.728516 Z" id="TOP"></path>
        </g>
    </g>
</svg>